<?xml version="1.0" encoding="utf-8"?>
<!-- Generator: Adobe Illustrator 16.0.0, SVG Export Plug-In . SVG Version: 6.00 Build 0)  -->
<!DOCTYPE svg PUBLIC "-//W3C//DTD SVG 1.1//EN" "http://www.w3.org/Graphics/SVG/1.1/DTD/svg11.dtd">
<svg version="1.1" xmlns="http://www.w3.org/2000/svg" xmlns:xlink="http://www.w3.org/1999/xlink" x="0px" y="0px"
	 width="1102.68px" height="839.06px" viewBox="0 0 1102.68 839.06" enable-background="new 0 0 1102.68 839.06"
	 xml:space="preserve">
<g id="Capa_2" display="none">
	<rect x="237.165" y="-15.334" display="inline" fill="#0F0F0F" width="748.493" height="785"/>
	<path display="inline" fill="none" stroke="#0F0F0F" stroke-miterlimit="10" d="M366,437v25c0,0,14.5,0,14.875-0.25
		c0,0,5.125-1.375,7-7.5s0-0.5,0-0.5S391,439.5,380.5,437.375L366,437z"/>
</g>
<g id="Capa_1">
</g>
<g id="Capa_3">
	<path fill="#FFFFFF" d="M544.999,589.493l-2.5,12c0,0-17-5-23.5-1.5c0,0-7,8.5,11.5,11c0,0,19,5.5,16,22
		c0,0-2.667,29.833-48.833,13.333l3-12.666c0,0,17.5,5.999,25,0.666c0,0,8.667-7.834-11.5-10c0,0-23.167-6.166-14-29.333
		c0,0,2.167-6.167,12.333-9.5C512.499,585.493,532.833,580.826,544.999,589.493z"/>
	<polygon fill="#FFFFFF" points="622.499,586.493 622.332,600.16 628.499,600.493 628.499,649.493 647.332,649.827 647.166,586.327 
			"/>
	<path fill="#FFFFFF" d="M407.833,613.993c0,0,10.667-3.834,13-17.834c0,0,6.464-21.336-13-29.833
		c-3.61-1.576-8.583-2.458-15.5-2.833h-32v85.833l19.167,0.167l0.167-29c0,0,7.334-0.501,11.167,0.166s10.167,25.666,12,28.5
		l20.167,0.5C422.999,649.659,414.5,618.493,407.833,613.993z M401.624,593.243c-1.5,12.875-9.125,11.125-9.125,11.125l-13,0.125
		v-25l12.5,0.125l3,0.375C403.999,581.618,401.624,593.243,401.624,593.243z"/>
	<path fill="#FFFFFF" d="M835.312,613.493c0,0,10.666-3.834,13-17.834c0,0,6.463-21.336-13-29.833
		c-3.611-1.576-8.584-2.458-15.5-2.833h-32v85.833l19.166,0.167l0.166-29c0,0,7.334-0.501,11.168,0.166
		c3.832,0.667,10.166,25.666,12,28.5l20.166,0.5C850.478,649.159,841.978,617.993,835.312,613.493z M829.103,592.743
		c-1.5,12.875-9.125,11.125-9.125,11.125l-13,0.125v-25l12.5,0.125l3,0.375C831.478,581.118,829.103,592.743,829.103,592.743z"/>
	<path fill="#FFFFFF" d="M478.999,588.826c0,0-20-13-37,2.167c0,0-12,6-7.5,41c0,0,4.738,22.54,34,18.667
		c4.75-0.629,14.5-2.667,18-4.167l-1.5-13.167c0,0-33,11.5-32.667-8.833c0,0,33.833-0.334,35-0.667
		C487.333,623.826,494.499,602.992,478.999,588.826z M452.124,611.118c0,0,0.75-10.875,9.25-11.625c0,0,9.5-0.5,9.375,11.875
		L452.124,611.118z"/>
	<g>
		<path fill="#FFFFFF" d="M613.999,606.826c-1.084-21.834-21.5-22.708-21.5-22.708c-11.125-0.75-18.5,7.875-18.5,7.875l-0.625-5.625
			l-15.375-0.125l0.333,88.414l19-0.25l-0.416-28.666c7.751,8.167,22.75,6.75,31.167-2.584S613.999,606.826,613.999,606.826z
			 M594.999,616.327c0.174,14.742-4.667,18.666-4.667,18.666c-3.667,4-13.333-1.666-13.333-1.666l-0.333-30.334
			c4.667-5.334,10-4.333,10-4.333C596.333,599.327,594.941,611.444,594.999,616.327z"/>
	</g>
	<path fill="#FFFFFF" d="M662.832,585.993l13.918,1.507l1.582,6.327c0,0,2.668-6.668,8.334-7.834c0,0,4.834-1.666,9.5-0.833
		c0,0,6.333,0.333,8.833,2l-2.667,15.5c0,0-12-4.5-16.333,1.5c0,0-4.001,4.167-4.667,9.5l-0.333,35.167l-18.5,0.5L662.832,585.993z"
		/>
	<path fill="#FFFFFF" d="M751.999,563.493l-23,0.5l-27.5,84.5l17.5-0.5l5.5-17.5l27,0.5l5.5,16.5l21.5,0.5L751.999,563.493z
		 M729.499,615.493l9-27.5l8.5,27.5H729.499z"/>
	<path fill="#FFFFFF" d="M713.767,533.203c-5.159-6.107-14.136-7.427-21.041-3.439c-5.742,3.314-9.973,8.104-13.687,13.449
		c-0.234,0.338-0.509,0.646-0.765,0.97c0.103-1.034,0.427-1.929,0.728-2.832c1.328-3.998,2.333-8.059,2.252-12.311
		c-0.127-6.521-2.671-11.795-8.674-14.665c-5.108-2.443-9.316-5.907-13.472-9.629c-2.713-2.431-5.73-4.661-8.943-6.356
		c-4.779-2.523-8.445-1.187-11.157,3.476c-2.308,3.967-3.142,8.362-3.391,12.865c-0.738,13.299,2.24,25.41,11.562,35.437
		c1.015,1.092,3.417,3.293,4.321,4.5c0.5,0.667,2.852,7.839,3.25,8.083c8.44,5.186,10.312,4.118,20.75,7.25
		c2.5,0.75,5.091,0.229,6,0.25c-2.076-1.9-2.616-1.994-3.99-3.251c0.6,0.021,0.86,0.018,1.117,0.04
		c8.182,0.788,15.904-0.684,23.086-4.744c5.749-3.25,10.485-7.561,13.326-13.62C717.545,543.334,717.807,537.982,713.767,533.203z
		 M660.587,553.358c-12.023-3.74-21.095-27.206-21.095-27.206c-2.236-12.098,6.205-23.522,6.205-23.522
		c4.033-2.734,13.715,9.489,18.521,12.276c12.052,6.989,11.805,23.842,9.022,31.806C670.46,554.677,664.737,554.649,660.587,553.358
		z M685.118,560.761l-14.733-2.527c0,0,5.885-3.145,7.223-4.861c4.511-5.793,7.102-19.762,20.479-21.043
		c0,0,9.204-5.41,12.446,5.043C713.091,545.619,710.116,560.748,685.118,560.761z"/>
	<path fill="#FFFFFF" d="M632.646,557.402c-2.438,0.639-5.027,5.441-4.261,7.92c0,0,0.146,7.989,9.191,6.645
		c0,0,7.594-1.291,7.309-8.651C644.885,563.315,642.636,554.792,632.646,557.402z"/>
</g>
</svg>
